<svg width="512" height="512" viewBox="0 0 512 512" fill="none" xmlns="http://www.w3.org/2000/svg">
  <rect width="512" height="512" fill="white"/> <!-- remove for transparency -->
  <path d="M256 32C132.3 32 32 132.3 32 256s100.3 224 224 224 224-100.3 224-224S379.7 32 256 32zm0 416c-105.9 0-192-86.1-192-192S150.1 64 256 64s192 86.1 192 192-86.1 192-192 192z" fill="#EA4335"/>
  <path d="M368 192v160c0 8.8-7.2 16-16 16H160c-8.8 0-16-7.2-16-16V192c0-8.8 7.2-16 16-16h192c8.8 0 16 7.2 16 16z" fill="#4285F4"/>
  <path d="M256 272l96-80v-32l-96 80-96-80v32l96 80z" fill="#ffffff"/>
</svg>