<svg width="512" height="512" viewBox="0 0 512 512" fill="none" xmlns="http://www.w3.org/2000/svg">
  <rect width="512" height="512" fill="white"/> <!-- remove for transparency -->
  <path d="M150.65 378.317V189.869H94.35V378.317H150.65ZM122.5 168.035C140.65 168.035 155.35 153.335 155.35 135.185C155.35 117.035 140.65 102.335 122.5 102.335C104.35 102.335 89.65 117.035 89.65 135.185C89.65 153.335 104.35 168.035 122.5 168.035ZM414.65 378.317V269.435C414.65 226.035 406.95 193.335 355.65 193.335C323.65 193.335 304.65 210.935 297.65 227.535V189.869H241.35C242.35 206.469 241.35 378.317 241.35 378.317H297.65V272.935C297.65 264.335 298.05 255.735 300.65 249.335C306.65 236.135 317.65 228.435 332.65 228.435C353.65 228.435 362.65 243.035 362.65 269.435V378.317H414.65Z" fill="#0A66C2"/>
</svg>