<svg width="512" height="512" viewBox="0 0 512 512" fill="none" xmlns="http://www.w3.org/2000/svg">
  <rect width="512" height="512" fill="white"/> <!-- remove for transparency -->
  <path d="M256 32C132.3 32 32 132.3 32 256c0 46.9 14.4 90.3 38.9 126L53.3 480l98.7-20.3C188.3 478.4 221.3 480 256 480c123.7 0 224-100.3 224-224S379.7 32 256 32zm0 416c-29.9 0-58.1-5.8-84.8-16.3l-6.1-2.6-63.3 13 13-63.3-2.6-6.1C98.8 330.1 93 301.9 93 272c0-90 73-163 163-163s163 73 163 163-73 163-163 163z" fill="#25D366"/>
  <path d="M348.8 298.3c-5.9-3-34.8-17.1-40.2-19.1-5.4-2-9.3-3-13.2 3-3.9 6-15.1 19.1-18.5 23-3.4 3.9-6.8 4.4-12.7 1.4-5.9-3-24.9-9.2-47.4-29.1-17.5-15.6-29.3-34.8-32.7-40.7-3.4-5.9-.4-9.1 2.6-12.1 2.7-2.6 5.9-6.8 8.9-10.2 2.9-3.4 3.9-5.9 5.9-9.8 2-3.9 1-7.3-.5-10.2-1.5-2.9-13.2-31.8-18.1-43.5-4.8-11.4-9.6-9.9-13.2-10.1-3.4-.2-7.3-.2-11.1-.2-3.8 0-10 1.5-15.3 7.3-5.3 5.8-20.3 19.8-20.3 48.3 0 28.5 20.8 56 23.7 59.9 2.9 3.9 41 62.6 99.3 87.8 57.9 25.2 81.5 26.7 110.6 25.1 29.1-1.6 44.3-11.8 50.5-23.2 6.2-11.4 6.2-21.2 4.3-23.2-1.9-2-7-3.9-12.9-6.9z" fill="#ffffff"/>
</svg>